<svg id="visual" viewBox="0 0 900 600" width="900" height="600" xmlns="http://www.w3.org/2000/svg" xmlns:xlink="http://www.w3.org/1999/xlink" version="1.1"><g stroke-width="1" stroke-linejoin="bevel"><path d="M426 298L383.5 365L419 337Z" fill="#22a727" stroke="#22a727"></path><path d="M426 298L377.5 245L383.5 365Z" fill="#24b22d" stroke="#24b22d"></path><path d="M426 298L374 234L377.5 245Z" fill="#22a727" stroke="#22a727"></path><path d="M241 407L314.5 439L383.5 365Z" fill="#26bd34" stroke="#26bd34"></path><path d="M241 407L383.5 365L206.5 274Z" fill="#167d0e" stroke="#167d0e"></path><path d="M646 300L426 298L419 337Z" fill="#28c83a" stroke="#28c83a"></path><path d="M206.5 274L383.5 365L377.5 245Z" fill="#1f9c21" stroke="#1f9c21"></path><path d="M374 234L206.5 274L377.5 245Z" fill="#29d341" stroke="#29d341"></path><path d="M180 209L191.5 264L206.5 274Z" fill="#28c83a" stroke="#28c83a"></path><path d="M206.5 274L193.5 425L241 407Z" fill="#167d0e" stroke="#167d0e"></path><path d="M374 234L258.5 139L206.5 274Z" fill="#127307" stroke="#127307"></path><path d="M191.5 264L193.5 425L206.5 274Z" fill="#167d0e" stroke="#167d0e"></path><path d="M241 407L245.5 489L314.5 439Z" fill="#24b22d" stroke="#24b22d"></path><path d="M258.5 139L180 209L206.5 274Z" fill="#1c921b" stroke="#1c921b"></path><path d="M191.5 264L70.5 427L193.5 425Z" fill="#1c921b" stroke="#1c921b"></path><path d="M193.5 425L245.5 489L241 407Z" fill="#198714" stroke="#198714"></path><path d="M258.5 139L192 164L180 209Z" fill="#2ade48" stroke="#2ade48"></path><path d="M646 300L622.5 259L426 298Z" fill="#24b22d" stroke="#24b22d"></path><path d="M426 298L616.5 215L374 234Z" fill="#127307" stroke="#127307"></path><path d="M374 234L297 29L258.5 139Z" fill="#22a727" stroke="#22a727"></path><path d="M564.5 487L419 337L383.5 365Z" fill="#22a727" stroke="#22a727"></path><path d="M564.5 487L383.5 365L455 577Z" fill="#26bd34" stroke="#26bd34"></path><path d="M622.5 259L616.5 215L426 298Z" fill="#22a727" stroke="#22a727"></path><path d="M455 577L383.5 365L314.5 439Z" fill="#167d0e" stroke="#167d0e"></path><path d="M564.5 487L646 300L419 337Z" fill="#127307" stroke="#127307"></path><path d="M622.5 259L764.5 263L616.5 215Z" fill="#1c921b" stroke="#1c921b"></path><path d="M353 600L455 577L314.5 439Z" fill="#2ade48" stroke="#2ade48"></path><path d="M432 0L297 29L374 234Z" fill="#29d341" stroke="#29d341"></path><path d="M258.5 139L206.5 0L192 164Z" fill="#167d0e" stroke="#167d0e"></path><path d="M245.5 489L353 600L314.5 439Z" fill="#2ade48" stroke="#2ade48"></path><path d="M455 577L571.5 519L564.5 487Z" fill="#24b22d" stroke="#24b22d"></path><path d="M564.5 487L627 472L646 300Z" fill="#167d0e" stroke="#167d0e"></path><path d="M520 44L501.5 40L374 234Z" fill="#167d0e" stroke="#167d0e"></path><path d="M616.5 215L520 44L374 234Z" fill="#24b22d" stroke="#24b22d"></path><path d="M571.5 519L627 472L564.5 487Z" fill="#198714" stroke="#198714"></path><path d="M748.5 142L634 152L616.5 215Z" fill="#2ade48" stroke="#2ade48"></path><path d="M616.5 215L634 152L520 44Z" fill="#127307" stroke="#127307"></path><path d="M221 600L259.5 600L245.5 489Z" fill="#167d0e" stroke="#167d0e"></path><path d="M245.5 489L259.5 600L353 600Z" fill="#127307" stroke="#127307"></path><path d="M521.5 0L432 0L501.5 40Z" fill="#24b22d" stroke="#24b22d"></path><path d="M501.5 40L432 0L374 234Z" fill="#167d0e" stroke="#167d0e"></path><path d="M432 0L293.5 0L297 29Z" fill="#1c921b" stroke="#1c921b"></path><path d="M297 29L206.5 0L258.5 139Z" fill="#24b22d" stroke="#24b22d"></path><path d="M0 357L70.5 427L191.5 264Z" fill="#22a727" stroke="#22a727"></path><path d="M139 578L221 600L245.5 489Z" fill="#24b22d" stroke="#24b22d"></path><path d="M0 357L191.5 264L0 220Z" fill="#29d341" stroke="#29d341"></path><path d="M139 578L245.5 489L193.5 425Z" fill="#167d0e" stroke="#167d0e"></path><path d="M520 44L521.5 0L501.5 40Z" fill="#127307" stroke="#127307"></path><path d="M734 0L521.5 0L520 44Z" fill="#29d341" stroke="#29d341"></path><path d="M293.5 0L206.5 0L297 29Z" fill="#1c921b" stroke="#1c921b"></path><path d="M192 164L81.5 84L180 209Z" fill="#28c83a" stroke="#28c83a"></path><path d="M70.5 427L139 578L193.5 425Z" fill="#24b22d" stroke="#24b22d"></path><path d="M455 577L580 600L571.5 519Z" fill="#26bd34" stroke="#26bd34"></path><path d="M571.5 519L630.5 600L627 472Z" fill="#28c83a" stroke="#28c83a"></path><path d="M353 600L580 600L455 577Z" fill="#198714" stroke="#198714"></path><path d="M139 0L81.5 84L192 164Z" fill="#26bd34" stroke="#26bd34"></path><path d="M0 600L145.5 600L139 578Z" fill="#1f9c21" stroke="#1f9c21"></path><path d="M139 578L145.5 600L221 600Z" fill="#24b22d" stroke="#24b22d"></path><path d="M0 220L191.5 264L180 209Z" fill="#28c83a" stroke="#28c83a"></path><path d="M70.5 427L0 582L139 578Z" fill="#22a727" stroke="#22a727"></path><path d="M0 203L0 220L180 209Z" fill="#198714" stroke="#198714"></path><path d="M81.5 84L0 203L180 209Z" fill="#26bd34" stroke="#26bd34"></path><path d="M206.5 0L139 0L192 164Z" fill="#198714" stroke="#198714"></path><path d="M81.5 84L0 110L0 203Z" fill="#198714" stroke="#198714"></path><path d="M725.5 600L728.5 448L627 472Z" fill="#167d0e" stroke="#167d0e"></path><path d="M627 472L728.5 448L646 300Z" fill="#127307" stroke="#127307"></path><path d="M646 300L764.5 263L622.5 259Z" fill="#29d341" stroke="#29d341"></path><path d="M580 600L630.5 600L571.5 519Z" fill="#198714" stroke="#198714"></path><path d="M728.5 448L764.5 263L646 300Z" fill="#198714" stroke="#198714"></path><path d="M634 152L734 0L520 44Z" fill="#1c921b" stroke="#1c921b"></path><path d="M748.5 142L734 124L634 152Z" fill="#1c921b" stroke="#1c921b"></path><path d="M764.5 263L748.5 142L616.5 215Z" fill="#22a727" stroke="#22a727"></path><path d="M0 0L0 110L81.5 84Z" fill="#167d0e" stroke="#167d0e"></path><path d="M725.5 600L770 466L728.5 448Z" fill="#198714" stroke="#198714"></path><path d="M728.5 448L837.5 412L764.5 263Z" fill="#29d341" stroke="#29d341"></path><path d="M0 357L0 582L70.5 427Z" fill="#29d341" stroke="#29d341"></path><path d="M630.5 600L725.5 600L627 472Z" fill="#26bd34" stroke="#26bd34"></path><path d="M0 582L0 600L139 578Z" fill="#1c921b" stroke="#1c921b"></path><path d="M139 0L0 0L81.5 84Z" fill="#26bd34" stroke="#26bd34"></path><path d="M791.5 0L734 124L748.5 142Z" fill="#167d0e" stroke="#167d0e"></path><path d="M791.5 0L734 0L734 124Z" fill="#22a727" stroke="#22a727"></path><path d="M734 124L734 0L634 152Z" fill="#22a727" stroke="#22a727"></path><path d="M900 444L837.5 412L770 466Z" fill="#24b22d" stroke="#24b22d"></path><path d="M770 466L837.5 412L728.5 448Z" fill="#127307" stroke="#127307"></path><path d="M764.5 263L855.5 217L748.5 142Z" fill="#26bd34" stroke="#26bd34"></path><path d="M900 287L855.5 217L764.5 263Z" fill="#198714" stroke="#198714"></path><path d="M900 59L791.5 0L748.5 142Z" fill="#24b22d" stroke="#24b22d"></path><path d="M900 444L900 310L837.5 412Z" fill="#167d0e" stroke="#167d0e"></path><path d="M837.5 412L900 310L764.5 263Z" fill="#22a727" stroke="#22a727"></path><path d="M855.5 217L900 59L748.5 142Z" fill="#198714" stroke="#198714"></path><path d="M900 310L900 287L764.5 263Z" fill="#198714" stroke="#198714"></path><path d="M900 570L900 444L770 466Z" fill="#2ade48" stroke="#2ade48"></path><path d="M900 287L900 59L855.5 217Z" fill="#1f9c21" stroke="#1f9c21"></path><path d="M725.5 600L900 570L770 466Z" fill="#28c83a" stroke="#28c83a"></path><path d="M725.5 600L900 600L900 570Z" fill="#198714" stroke="#198714"></path><path d="M900 59L900 0L791.5 0Z" fill="#26bd34" stroke="#26bd34"></path></g></svg>