<svg id="visual" viewBox="0 0 900 600" width="900" height="600" xmlns="http://www.w3.org/2000/svg" xmlns:xlink="http://www.w3.org/1999/xlink" version="1.1"><g stroke-width="1" stroke-linejoin="bevel"><path d="M418.7 271L410.7 330L516.3 229Z" fill="#2cce47" stroke="#2cce47"></path><path d="M410.7 330L520.3 394L516.3 229Z" fill="#32b73a" stroke="#32b73a"></path><path d="M520.3 394L611.9 244L516.3 229Z" fill="#349529" stroke="#349529"></path><path d="M520.3 394L645.9 359L611.9 244Z" fill="#33b137" stroke="#33b137"></path><path d="M354.7 496L529.3 467L520.3 394Z" fill="#349529" stroke="#349529"></path><path d="M520.3 394L529.3 467L645.9 359Z" fill="#33b137" stroke="#33b137"></path><path d="M479.3 89L381.7 120L516.3 229Z" fill="#34ab34" stroke="#34ab34"></path><path d="M516.3 229L381.7 120L418.7 271Z" fill="#30c240" stroke="#30c240"></path><path d="M418.7 271L253.1 209L410.7 330Z" fill="#34a631" stroke="#34a631"></path><path d="M610.9 121L479.3 89L516.3 229Z" fill="#30c240" stroke="#30c240"></path><path d="M735.4 152L610.9 121L611.9 244Z" fill="#349529" stroke="#349529"></path><path d="M611.9 244L610.9 121L516.3 229Z" fill="#30c240" stroke="#30c240"></path><path d="M227.1 337L354.7 496L410.7 330Z" fill="#33b137" stroke="#33b137"></path><path d="M410.7 330L354.7 496L520.3 394Z" fill="#2cce47" stroke="#2cce47"></path><path d="M619.9 600L644.9 493L529.3 467Z" fill="#34a631" stroke="#34a631"></path><path d="M529.3 467L644.9 493L645.9 359Z" fill="#31bc3d" stroke="#31bc3d"></path><path d="M381.7 120L253.1 209L418.7 271Z" fill="#349b2c" stroke="#349b2c"></path><path d="M253.1 209L227.1 337L410.7 330Z" fill="#32b73a" stroke="#32b73a"></path><path d="M227.1 337L277.1 497L354.7 496Z" fill="#30c240" stroke="#30c240"></path><path d="M354.7 496L504.3 600L529.3 467Z" fill="#34a631" stroke="#34a631"></path><path d="M381.7 600L504.3 600L354.7 496Z" fill="#2cce47" stroke="#2cce47"></path><path d="M803.4 209L735.4 152L611.9 244Z" fill="#34a02e" stroke="#34a02e"></path><path d="M803.4 209L611.9 244L645.9 359Z" fill="#34a02e" stroke="#34a02e"></path><path d="M381.7 120L234.1 145L253.1 209Z" fill="#31bc3d" stroke="#31bc3d"></path><path d="M104.6 253L141.6 336L227.1 337Z" fill="#31bc3d" stroke="#31bc3d"></path><path d="M277.1 0L234.1 145L381.7 120Z" fill="#31bc3d" stroke="#31bc3d"></path><path d="M253.1 600L381.7 600L354.7 496Z" fill="#31bc3d" stroke="#31bc3d"></path><path d="M609.9 0L496.3 0L479.3 89Z" fill="#34a631" stroke="#34a631"></path><path d="M479.3 89L399.7 0L381.7 120Z" fill="#34a02e" stroke="#34a02e"></path><path d="M609.9 0L479.3 89L610.9 121Z" fill="#2cce47" stroke="#2cce47"></path><path d="M504.3 600L619.9 600L529.3 467Z" fill="#34a631" stroke="#34a631"></path><path d="M777.4 461L805.4 374L645.9 359Z" fill="#2cce47" stroke="#2cce47"></path><path d="M777.4 461L645.9 359L644.9 493Z" fill="#31bc3d" stroke="#31bc3d"></path><path d="M766.4 600L777.4 461L644.9 493Z" fill="#33b137" stroke="#33b137"></path><path d="M496.3 0L399.7 0L479.3 89Z" fill="#2cce47" stroke="#2cce47"></path><path d="M805.4 374L803.4 209L645.9 359Z" fill="#34a631" stroke="#34a631"></path><path d="M754.4 0L610.9 121L735.4 152Z" fill="#34a631" stroke="#34a631"></path><path d="M754.4 0L609.9 0L610.9 121Z" fill="#33b137" stroke="#33b137"></path><path d="M227.1 337L148.6 494L277.1 497Z" fill="#34a02e" stroke="#34a02e"></path><path d="M104.6 253L227.1 337L253.1 209Z" fill="#33b137" stroke="#33b137"></path><path d="M148.6 494L253.1 600L277.1 497Z" fill="#349529" stroke="#349529"></path><path d="M277.1 497L253.1 600L354.7 496Z" fill="#34ab34" stroke="#34ab34"></path><path d="M399.7 0L277.1 0L381.7 120Z" fill="#2cce47" stroke="#2cce47"></path><path d="M234.1 145L104.6 253L253.1 209Z" fill="#349b2c" stroke="#349b2c"></path><path d="M141.6 336L148.6 494L227.1 337Z" fill="#349529" stroke="#349529"></path><path d="M153.6 113L104.6 253L234.1 145Z" fill="#31bc3d" stroke="#31bc3d"></path><path d="M141.6 336L0 457L148.6 494Z" fill="#2ec844" stroke="#2ec844"></path><path d="M277.1 0L153.6 113L234.1 145Z" fill="#34a02e" stroke="#34a02e"></path><path d="M619.9 600L766.4 600L644.9 493Z" fill="#31bc3d" stroke="#31bc3d"></path><path d="M900 497L900 344L805.4 374Z" fill="#349b2c" stroke="#349b2c"></path><path d="M900 86L754.4 0L735.4 152Z" fill="#33b137" stroke="#33b137"></path><path d="M805.4 374L900 255L803.4 209Z" fill="#34ab34" stroke="#34ab34"></path><path d="M803.4 209L900 86L735.4 152Z" fill="#2ec844" stroke="#2ec844"></path><path d="M900 497L805.4 374L777.4 461Z" fill="#34a02e" stroke="#34a02e"></path><path d="M900 344L900 255L805.4 374Z" fill="#349b2c" stroke="#349b2c"></path><path d="M0 600L162.6 600L148.6 494Z" fill="#349b2c" stroke="#349b2c"></path><path d="M148.6 494L162.6 600L253.1 600Z" fill="#33b137" stroke="#33b137"></path><path d="M766.4 600L900 497L777.4 461Z" fill="#33b137" stroke="#33b137"></path><path d="M900 255L900 86L803.4 209Z" fill="#33b137" stroke="#33b137"></path><path d="M0 115L0 249L104.6 253Z" fill="#30c240" stroke="#30c240"></path><path d="M277.1 0L137.6 0L153.6 113Z" fill="#2cce47" stroke="#2cce47"></path><path d="M104.6 253L0 345L141.6 336Z" fill="#31bc3d" stroke="#31bc3d"></path><path d="M0 249L0 345L104.6 253Z" fill="#33b137" stroke="#33b137"></path><path d="M0 115L104.6 253L153.6 113Z" fill="#2cce47" stroke="#2cce47"></path><path d="M766.4 600L900 600L900 497Z" fill="#32b73a" stroke="#32b73a"></path><path d="M900 86L900 0L754.4 0Z" fill="#34a631" stroke="#34a631"></path><path d="M0 345L0 457L141.6 336Z" fill="#349529" stroke="#349529"></path><path d="M137.6 0L0 115L153.6 113Z" fill="#34a631" stroke="#34a631"></path><path d="M0 457L0 600L148.6 494Z" fill="#2cce47" stroke="#2cce47"></path><path d="M137.6 0L0 0L0 115Z" fill="#31bc3d" stroke="#31bc3d"></path></g></svg>